<?xml version="1.0" standalone="no"?>
<!DOCTYPE svg PUBLIC "-//W3C//DTD SVG 20010904//EN"
 "http://www.w3.org/TR/2001/REC-SVG-20010904/DTD/svg10.dtd">
<svg version="1.0" xmlns="http://www.w3.org/2000/svg"
 width="500.000000pt" height="500.000000pt" viewBox="0 0 500.000000 500.000000"
 preserveAspectRatio="xMidYMid meet">
<metadata>
Created by potrace 1.15, written by Peter Selinger 2001-2017
</metadata>
<g transform="translate(0.000000,500.000000) scale(0.100000,-0.100000)"
fill="#000000" stroke="none">
<path d="M2340 4537 c-3 -4 -62 -18 -130 -32 -178 -37 -367 -88 -516 -139 -71
-24 -169 -56 -218 -70 -98 -28 -140 -52 -202 -115 -33 -32 -49 -41 -76 -41
-25 0 -45 -9 -70 -32 -20 -18 -70 -64 -112 -103 -42 -38 -76 -77 -76 -87 0 -9
-16 -31 -35 -49 -19 -19 -35 -41 -35 -50 0 -9 -7 -22 -15 -29 -8 -7 -15 -19
-15 -26 0 -9 -11 -14 -30 -14 -23 0 -33 -7 -46 -31 -9 -19 -13 -41 -9 -57 5
-20 -1 -33 -34 -66 -24 -25 -70 -101 -117 -191 -42 -82 -88 -164 -101 -181
-46 -62 -72 -166 -84 -339 -6 -88 -15 -190 -21 -227 -9 -64 -11 -68 -44 -80
-24 -8 -36 -20 -40 -38 -3 -14 -7 -32 -9 -40 -2 -8 -6 -24 -9 -36 -5 -15 0
-23 18 -32 23 -10 24 -13 14 -54 -11 -48 -3 -226 14 -303 54 -258 286 -788
398 -910 15 -16 51 -66 81 -110 65 -97 287 -321 384 -388 39 -26 131 -87 205
-134 74 -47 152 -101 172 -119 26 -23 64 -41 124 -60 157 -47 262 -63 524 -80
230 -14 265 -14 360 0 58 8 155 20 215 26 256 25 375 53 520 119 44 21 94 41
110 45 17 4 59 20 95 36 36 16 83 34 106 40 38 9 204 106 266 154 14 12 49 35
78 51 175 102 333 245 424 383 95 146 154 291 230 567 14 50 38 140 55 200 29
104 31 120 31 292 0 100 -4 193 -10 208 -5 14 -15 78 -21 142 -6 65 -18 135
-27 158 -12 30 -17 84 -19 225 -3 151 -7 188 -20 202 -16 18 -23 46 -52 224
-11 61 -25 122 -32 135 -23 45 -91 117 -114 123 -30 8 -61 59 -77 125 -11 51
-13 52 -122 126 -75 50 -121 75 -140 75 -20 0 -43 13 -77 45 -26 25 -55 45
-63 45 -8 0 -23 15 -33 33 -14 23 -49 49 -117 87 -54 30 -122 76 -152 102 -45
40 -71 52 -166 82 -208 64 -598 157 -808 191 -103 17 -322 31 -330 22z m228
-279 c110 2 168 -1 177 -8 10 -8 19 -8 33 1 17 10 32 8 93 -15 41 -16 117 -37
169 -48 52 -11 102 -26 110 -33 8 -7 51 -23 95 -35 44 -11 100 -32 124 -46 24
-13 50 -24 58 -24 9 0 31 -14 51 -31 20 -18 55 -40 79 -51 24 -10 43 -25 43
-33 0 -8 24 -30 53 -48 115 -74 292 -277 362 -417 21 -41 54 -100 75 -130 59
-87 78 -131 142 -324 78 -238 95 -310 109 -479 7 -78 18 -154 26 -169 18 -37
17 -254 -2 -333 -8 -33 -15 -82 -15 -110 -1 -27 -8 -68 -16 -90 -17 -44 -40
-121 -78 -262 -14 -50 -34 -109 -44 -130 -11 -21 -22 -57 -25 -81 -3 -23 -13
-54 -24 -69 -10 -14 -22 -33 -28 -41 -14 -20 -136 -143 -226 -227 -42 -38
-106 -87 -142 -109 -37 -21 -67 -42 -67 -46 0 -5 -24 -13 -52 -20 -66 -14
-131 -70 -82 -70 9 0 14 -6 12 -12 -3 -8 -34 -16 -84 -20 -83 -7 -105 -12
-194 -48 -126 -51 -253 -80 -394 -91 -76 -5 -157 -17 -180 -25 -50 -18 -272
-38 -341 -30 -27 3 -79 10 -115 15 -36 6 -110 15 -165 21 -151 15 -184 25
-316 90 -66 34 -162 75 -212 92 -59 19 -105 42 -127 62 -19 17 -62 41 -95 53
-89 33 -206 132 -368 314 -169 189 -237 301 -237 392 -1 28 -8 70 -16 92 -29
76 -34 101 -49 217 -9 72 -24 140 -39 178 -37 90 -66 204 -66 256 0 35 -6 51
-26 71 -25 25 -26 29 -14 62 21 61 76 175 109 227 34 53 80 189 108 316 12 60
14 83 5 102 -9 19 -8 27 4 36 8 7 14 18 14 25 0 7 24 32 54 56 49 41 57 53 96
154 24 61 55 123 71 140 15 17 87 94 160 173 110 117 149 152 228 202 53 33
105 60 116 60 12 0 29 14 42 34 34 53 81 69 219 75 72 4 127 11 136 18 8 7 63
17 123 23 60 5 130 16 155 24 25 8 74 17 110 21 36 3 72 10 79 14 22 14 3 49
-29 56 -17 4 -30 11 -30 15 0 18 35 30 65 23 17 -5 103 -7 193 -5z"/>
<path d="M930 2415 l0 -445 263 0 262 0 -2 432 c-2 238 -3 439 -3 446 0 9 -59
12 -260 12 l-260 0 0 -445z m365 308 c80 -42 115 -98 115 -184 0 -113 -95
-199 -221 -199 -27 0 -49 -3 -49 -7 -1 -5 -2 -60 -3 -123 l-2 -115 -77 -3 -78
-3 0 324 c0 178 3 327 8 331 4 5 66 6 137 4 106 -4 137 -8 170 -25z"/>
<path d="M1550 2415 l0 -445 265 0 265 0 0 445 0 445 -265 0 -265 0 0 -445z
m480 260 l0 -74 -137 -3 -138 -3 0 -50 0 -50 103 -3 103 -3 -3 -72 -3 -72
-102 -3 -103 -3 0 -49 0 -50 140 0 140 0 0 -75 0 -75 -215 0 -215 0 0 330 0
330 215 0 215 0 0 -75z"/>
<path d="M2170 2415 l0 -445 370 0 370 0 -2 443 -3 442 -367 3 -368 2 0 -445z
m446 327 c5 -4 34 -72 63 -152 61 -165 108 -290 151 -402 17 -42 30 -82 30
-87 0 -7 -32 -11 -84 -11 l-83 0 -31 88 c-17 48 -38 104 -47 125 l-15 37 -69
0 -69 0 -21 -57 c-11 -32 -31 -87 -44 -123 l-25 -65 -86 -3 -86 -3 34 93 c18
51 52 143 75 203 23 61 55 147 71 192 17 44 39 102 50 127 l19 46 78 0 c43 0
83 -4 89 -8z"/>
<path d="M3000 2415 l0 -445 270 0 270 0 -2 443 -3 442 -267 3 -268 2 0 -445z
m360 311 c80 -42 120 -105 120 -188 0 -62 -20 -100 -78 -149 l-40 -33 64 -125
c35 -68 64 -128 64 -133 0 -4 -36 -8 -80 -8 l-80 0 -57 116 -58 116 -3 -116
-3 -116 -79 0 -80 0 0 331 0 331 138 -4 c107 -3 145 -8 172 -22z"/>
<path d="M3640 2415 l0 -445 245 0 245 0 0 445 0 445 -245 0 -245 0 0 -445z
m208 78 l2 -253 115 0 115 0 0 -75 0 -75 -190 0 -190 0 0 330 0 331 73 -3 72
-3 3 -252z"/>
</g>
</svg>
